# xmcd
#
# Track frame offsets:
#	150
#	14967
#	29632
#	43872
#	59487
#	71477
#	86462
#	99660
#	114305
#	130605
#	145670
#	160542
#	175570
#	189447
#	205485
#	220747
#	233875
#	247407
#	264700
#	277115
#	292602
#	304875
#
# Disc length: 4246 seconds
#
# Revision: 0
# Processed by: cddbd v1.5.2PL0 Copyright (c) Steve Scherf et al.
# Submitted via: EasyCDDAExtractor 16.0.8.2
#
DISCID=49109416
DTITLE=Συλλογικός δίσκος - Όταν τα τζουκ μποξ παίζανε λαϊκά 2
DYEAR=1900
DGENRE=Λαϊκή
TTITLE0=Περπινιάδης Βαγγέλης - Τα νέα της Αλεξάνδρας
TTITLE1=Καζαντζίδης Στέλιος-Μαρινέλλα - Είσαι η ζωή μου
TTITLE2=Μενιδιάτης Μιχάλης - Πετραδάκι-πατραδάκι
TTITLE3=Γκρέϋ Καίυη - Τό 'πες και τό 'κανες
TTITLE4=Ζαγοραίος Σπύρος - Της Λαρίσης το ποτάμι
TTITLE5=Καζαντζίδης Στέλιος - Νόμιζα πως ήταν φίλοι
TTITLE6=Γαβαλάς Πάνος-Κούρτη Ρία - Άμα θες να φύγεις φύγε
TTITLE7=Μπιθικώτσης Γρηγόρης - Ο μπαρμπα Θωμάς
TTITLE8=Λίντα Μαίρη - Πάρε με στο τηλέφωνο
TTITLE9=Καζαντζίδης Στέλιος - Καρδιά πληγωμένη
TTITLE10=Περπινιάδης Στέλιος - Όσο με μαλώνεις
TTITLE11=Λύδια Γιώτα - Νά 'χα εκατό καρδιές
TTITLE12=Χατζηαντωνίου Γιώργος - Τώρα κλαις, γιατί κλαις
TTITLE13=Γαβαλάς Πάνος - Μείνε αγάπη μου κοντά μου
TTITLE14=Χατζηαντωνίου Γιώργος - Δεν θέλω τη συμπόνια κανενός
TTITLE15=Καζαντζίδης Στέλιος - Ο γυάλινος κόσμος
TTITLE16=Διονυσίου Στράτος - Χθες το βράδυ στην ταβέρνα
TTITLE17=Ρεπάνης Αντώνης - Ανεβαίνω σκαλοπάτια
TTITLE18=Αγγελόπουλος Μανώλης - Όσο αξίζεις εσύ
TTITLE19=Πάνου Πόλυ - Ένα σφάλμα έκανα
TTITLE20=Περπινιάδης Βαγγέλης - Ποιος σού 'πε δεν σ' αγαπώ
TTITLE21=Μπιθικώτσης Γρηγόρης - Ρολόϊ κομπολόϊ
EXTD=
EXTT0=
EXTT1=
EXTT2=
EXTT3=
EXTT4=
EXTT5=
EXTT6=
EXTT7=
EXTT8=
EXTT9=
EXTT10=
EXTT11=
EXTT12=
EXTT13=
EXTT14=
EXTT15=
EXTT16=
EXTT17=
EXTT18=
EXTT19=
EXTT20=
EXTT21=
PLAYORDER=
